{"title":"The Incredible Burt Wonderstone 2013 BRRip 480p x264 - VYTO [P2P","uid":8567440,"size":338299527,"categoryP":"video","categoryS":"movies","magnet":"?xt=urn:btih:681271f413dc4bebd91149f7f65df02831b51d60&amp;dn=The+Incredible+Burt+Wonderstone+2013+BRRip+480p+x264+-+VYTO+%5BP2P&amp;tr=udp%3A%2F%2Ftracker.openbittorrent.com%3A80&amp;tr=udp%3A%2F%2Fopen.demonii.com%3A1337&amp;tr=udp%3A%2F%2Ftracker.coppersurfer.tk%3A6969&amp;tr=udp%3A%2F%2Fexodus.desync.com%3A6969","seeders":1,"leechers":0,"uploader":"ValidusVyto","files":-1,"time":1371059821,"description":"_______ Visit us at our Semi Public Bittorrent Community ________\n  &lt;a href=&quot;\nhttp://p2pdl.com&quot; rel=&quot;nofollow&quot; target=&quot;_NEW&quot;&gt;\nhttp://p2pdl.com&lt;/a&gt;  _____________________________ &lt;a href=&quot; http://p2pdl.com&quot; rel=&quot;nofollow&quot; target=&quot;_NEW&quot;&gt; http://p2pdl.com&lt;/a&gt;\n\n\nThe Incredible Burt Wonderstone 2013 BRRip 480p x264 - VYTO\n\n\nGenre: Comedy\nPlot: When a street magician's stunts begins to make their show look stale,\nsuperstar magicians Burt Wonderstone and Anton Marvelton look to salvage on\ntheir act - and their friendship - by staging their own daring stunt.   \nDirector: Don Scardino\nStars:  Steve Carell, Steve Buscemi, Mason Cook.\nRated: PG-13 for sexual content, dangerous stunts, a drug-related incident\nand language.\n\n\nInfo: &lt;a href=&quot;\nhttp://www.imdb.com/title/tt0790628/&quot; rel=&quot;nofollow&quot; target=&quot;_NEW&quot;&gt;\nhttp://www.imdb.com/title/tt0790628/&lt;/a&gt;\n\nFormat                         : MPEG-4\nFile size                      : 317 MiB\nDuration                       : 1h 40mn\nOverall bit rate               : 442 Kbps\nSource                         : 720p.BluRay.x264-SPARKS\n\nVideo\nFormat                         : AVC\nBit rate                       : 399 Kbps\nWidth                          : 720 pixels\nHeight                         : 304 pixels\nDisplay aspect ratio           : 2.35:1\nFrame rate mode                : Constant\nFrame rate                     : 23.976 fps\nStream size                    : 286 MiB (90%)\nWriting library                : x264 core 130 r2273\nAudio\nFormat                         : AAC\nBit rate                       : 40.0 Kbps\nChannel(s)                     : 2 channels\nChannel positions              : Front: L R\nSampling rate                  : 48.0 KHz\nStream size                    : 28.7 MiB (9%)\nLanguage                       : English\n\nSubtitle                       : Yes(English)\n\n----------------------------------------------------------------------------------------------------\n\n\nEncoded using revolutionary 10bit encoding, which enables us to provide you more crispier \nand sharper images at small sizes, just make sure you follow our instructions without a fault.\nRecommend to you to use latest version of VLC player. Install K-Lite Codec Pack or shark007 codecs\nin case of any kind of problem in playback (For non-VLC Media Player users). Alternatively, install\nCore AVC codecs, the fastest decoder that there is coupled with Community Center Codec Pack and play\non Windows Media Player Classic. Check sample to be sure.\nEnjoy!\n\nEncoder Notes:Looking For Early Access To Anything You Can Provide DVDScr, R5, DVDR, BluRay, Direct\nAudio, Music Releases and Seedboxes. We require dedicated servers, so as to do more \nand fast releases of movies.\nIf You Got anything to offer please contact us at &quot;&lt;a class=&quot;__cf_email__&quot; href=&quot;/cdn-cgi/l/email-protection&quot; data-cfemail=&quot;086b67667c696b7c48783a786c64266b6765&quot;&gt;[email&amp;#160;protected]&lt;/a&gt;&lt;script cf-hash='f9e31' type=&quot;text/javascript&quot;&gt;\n/* &lt;![CDATA[ */!function(){try{var t=&quot;currentScript&quot;in document?document.currentScript:function(){for(var t=document.getElementsByTagName(&quot;script&quot;),e=t.length;e--;)if(t[e].getAttribute(&quot;cf-hash&quot;))return t[e]}();if(t&amp;&amp;t.previousSibling){var e,r,n,i,c=t.previousSibling,a=c.getAttribute(&quot;data-cfemail&quot;);if(a){for(e=&quot;&quot;,r=parseInt(a.substr(0,2),16),n=2;a.length-n;n+=2)i=parseInt(a.substr(n,2),16)^r,e+=String.fromCharCode(i);e=document.createTextNode(e),c.parentNode.replaceChild(e,c)}}}catch(u){}}();/* ]]&gt; */&lt;/script&gt;&quot;.\n\nFace book Fan Page:   &lt;a href=&quot;\nhttp://fbl.me/BC&quot; rel=&quot;nofollow&quot; target=&quot;_NEW&quot;&gt;\nhttp://fbl.me/BC&lt;/a&gt;","torrent":{"xt":"urn:btih:681271f413dc4bebd91149f7f65df02831b51d60","amp;dn":"The+Incredible+Burt+Wonderstone+2013+BRRip+480p+x264+-+VYTO+%5BP2P","amp;tr":["udp%3A%2F%2Ftracker.openbittorrent.com%3A80","udp%3A%2F%2Fopen.demonii.com%3A1337","udp%3A%2F%2Ftracker.coppersurfer.tk%3A6969","udp%3A%2F%2Fexodus.desync.com%3A6969"],"infoHash":"681271f413dc4bebd91149f7f65df02831b51d60","infoHashBuffer":{"type":"Buffer","data":[104,18,113,244,19,220,75,235,217,17,73,247,246,93,240,40,49,181,29,96]},"announce":[],"urlList":[]}}